<?xml version="1.0" encoding="UTF-8" standalone="no"?>
<!-- Created with Inkscape (http://www.inkscape.org/) -->

<svg
   width="64"
   height="64"
   viewBox="0 0 16.933332 16.933334"
   version="1.1"
   id="svg1"
   inkscape:version="1.3 (0e150ed6c4, 2023-07-21)"
   sodipodi:docname="avatar.svg"
   xmlns:inkscape="http://www.inkscape.org/namespaces/inkscape"
   xmlns:sodipodi="http://sodipodi.sourceforge.net/DTD/sodipodi-0.dtd"
   xmlns="http://www.w3.org/2000/svg"
   xmlns:svg="http://www.w3.org/2000/svg">
  <sodipodi:namedview
     id="namedview1"
     pagecolor="#ffffff"
     bordercolor="#666666"
     borderopacity="1.0"
     inkscape:showpageshadow="2"
     inkscape:pageopacity="0.0"
     inkscape:pagecheckerboard="0"
     inkscape:deskcolor="#d1d1d1"
     inkscape:document-units="px"
     inkscape:zoom="7.7265625"
     inkscape:cx="16.889788"
     inkscape:cy="35.785642"
     inkscape:window-width="1920"
     inkscape:window-height="1009"
     inkscape:window-x="1272"
     inkscape:window-y="-8"
     inkscape:window-maximized="1"
     inkscape:current-layer="layer1" />
  <defs
     id="defs1" />
  <g
     inkscape:label="Calque 1"
     inkscape:groupmode="layer"
     id="layer1">
    <rect
       style="fill:#333333;stroke-width:0.081594;stroke-linecap:round;stroke-linejoin:round;paint-order:markers fill stroke"
       id="rect1"
       width="16.933332"
       height="16.933332"
       x="2.7838132e-07"
       y="2.7838132e-07" />
    <path
       id="path2"
       style="font-size:10.5833px;line-height:1.25;font-family:Quicksilver;-inkscape-font-specification:'Quicksilver, Normal';fill:#4d4d4d;stroke-width:0.448959"
       d="m 8.466665,2.3285473 c -1.6952805,0 -3.1421372,0.5991938 -4.3405255,1.7975973 -1.1983875,1.1983876 -1.7975922,2.6452457 -1.7975922,4.3405233 0,1.6952961 0.5992047,3.1421361 1.7975922,4.3405361 1.1983883,1.198386 2.645245,1.797582 4.3405255,1.797582 1.695282,0 3.142137,-0.599196 4.340528,-1.797582 1.198387,-1.1984 1.797593,-2.64524 1.797593,-4.3405361 0,-1.6952776 -0.599206,-3.1421357 -1.797593,-4.3405233 C 11.608802,2.9277411 10.161947,2.3285473 8.466665,2.3285473 Z m 0,3.5075024 c 0.1113141,0 0.2189692,0.00848 0.3253214,0.02019 A 1.4473011,1.4473018 0 0 0 8.4491282,6.7901048 1.4473011,1.4473018 0 0 0 9.8968477,8.2378282 1.4473011,1.4473018 0 0 0 10.996447,7.7292467 c 0.06601,0.2326385 0.100844,0.4778007 0.100844,0.7374364 0,0.7248964 -0.257219,1.3445516 -0.771648,1.8589709 -0.5144308,0.514437 -1.1340931,0.771661 -1.8589745,0.771661 -0.7248761,0 -1.3445419,-0.257224 -1.8589717,-0.771661 -0.5144326,-0.5144193 -0.77165,-1.1340745 -0.77165,-1.8589709 0,-0.7248631 0.2572174,-1.3445377 0.77165,-1.8589732 0.5144298,-0.5144356 1.1340956,-0.771645 1.8589717,-0.771645 z" />
  </g>
</svg>
