<?xml version="1.0" encoding="UTF-8" standalone="no"?>
<!-- Created with Inkscape (http://www.inkscape.org/) -->

<svg
   width="64"
   height="64"
   viewBox="0 0 16.933333 16.933333"
   version="1.1"
   id="svg1"
   inkscape:version="1.3 (0e150ed6c4, 2023-07-21)"
   sodipodi:docname="favicon.svg"
   xmlns:inkscape="http://www.inkscape.org/namespaces/inkscape"
   xmlns:sodipodi="http://sodipodi.sourceforge.net/DTD/sodipodi-0.dtd"
   xmlns="http://www.w3.org/2000/svg"
   xmlns:svg="http://www.w3.org/2000/svg">
  <sodipodi:namedview
     id="namedview1"
     pagecolor="#ffffff"
     bordercolor="#666666"
     borderopacity="1.0"
     inkscape:showpageshadow="2"
     inkscape:pageopacity="0.0"
     inkscape:pagecheckerboard="0"
     inkscape:deskcolor="#d1d1d1"
     inkscape:document-units="mm"
     inkscape:zoom="8.3755251"
     inkscape:cx="36.35593"
     inkscape:cy="40.415377"
     inkscape:window-width="1920"
     inkscape:window-height="1009"
     inkscape:window-x="1272"
     inkscape:window-y="-8"
     inkscape:window-maximized="1"
     inkscape:current-layer="layer1" />
  <defs
     id="defs1" />
  <g
     inkscape:label="Calque 1"
     inkscape:groupmode="layer"
     id="layer1">
    <path
       id="path2"
       style="font-size:10.5833px;line-height:1.25;font-family:Quicksilver;-inkscape-font-specification:'Quicksilver, Normal';fill:#000000;stroke-width:0.619275"
       d="M 8.466666,0 C 6.1282666,0 4.1325316,0.82650257 2.4795241,2.4795311 0.82651896,4.1325363 0,6.1282713 0,8.466666 c 0,2.338418 0.82651896,4.33413 2.4795241,5.987158 1.6530075,1.653005 3.6487425,2.479508 5.9871419,2.479508 2.338402,0 4.334134,-0.826503 5.987144,-2.479508 1.653004,-1.653028 2.479523,-3.64874 2.479523,-5.987158 0,-2.3383947 -0.826519,-4.3341297 -2.479523,-5.9871349 C 12.8008,0.82650257 10.805068,0 8.466666,0 Z m 0,4.8381015 c 0.1535414,0 0.3020367,0.011703 0.4487343,0.027853 A 1.9963474,1.9963474 0 0 0 8.4424762,6.1540878 1.9963474,1.9963474 0 0 0 10.4394,8.1510165 1.9963474,1.9963474 0 0 0 11.956142,7.4495004 c 0.09105,0.3208924 0.1391,0.6590581 0.1391,1.017189 0,0.9998921 -0.354798,1.8546216 -1.064379,2.5641896 -0.709584,0.709591 -1.5643213,1.064398 -2.5641924,1.064398 -0.999864,0 -1.8546055,-0.354807 -2.5641895,-1.064398 C 5.1928947,10.321311 4.8380992,9.4665815 4.8380992,8.4666894 c 0,-0.9998453 0.3547955,-1.8545986 1.0643819,-2.5641896 0.709584,-0.7095911 1.5643255,-1.0643749 2.5641895,-1.0643749 z" />
  </g>
</svg>
