<?xml version="1.0" encoding="UTF-8" standalone="no"?>
<!-- Created with Inkscape (http://www.inkscape.org/) -->

<svg
   width="40.712616mm"
   height="7.2583899mm"
   viewBox="0 0 40.712616 7.2583899"
   version="1.1"
   id="svg1"
   inkscape:version="1.3 (0e150ed6c4, 2023-07-21)"
   sodipodi:docname="logo.svg"
   xmlns:inkscape="http://www.inkscape.org/namespaces/inkscape"
   xmlns:sodipodi="http://sodipodi.sourceforge.net/DTD/sodipodi-0.dtd"
   xmlns="http://www.w3.org/2000/svg"
   xmlns:svg="http://www.w3.org/2000/svg">
  <sodipodi:namedview
     id="namedview1"
     pagecolor="#ffffff"
     bordercolor="#666666"
     borderopacity="1.0"
     inkscape:showpageshadow="2"
     inkscape:pageopacity="0.0"
     inkscape:pagecheckerboard="0"
     inkscape:deskcolor="#d1d1d1"
     inkscape:document-units="mm"
     inkscape:zoom="2.0938813"
     inkscape:cx="-2.149119"
     inkscape:cy="43.698753"
     inkscape:window-width="1920"
     inkscape:window-height="1009"
     inkscape:window-x="1272"
     inkscape:window-y="-8"
     inkscape:window-maximized="1"
     inkscape:current-layer="layer1" />
  <defs
     id="defs1" />
  <g
     inkscape:label="Calque 1"
     inkscape:groupmode="layer"
     id="layer1"
     transform="translate(-60.301705,-109.00988)">
    <path
       id="path2"
       style="font-size:10.5833px;line-height:1.25;font-family:Quicksilver;-inkscape-font-specification:'Quicksilver, Normal';stroke-width:0.264583;fill:#666666"
       d="m 70.495438,109.00988 c -0.999072,0 -1.851742,0.35312 -2.557983,1.05937 -0.70624,0.70624 -1.059367,1.55891 -1.059367,2.55798 0,0.99908 0.353127,1.85174 1.059367,2.55799 0.706241,0.70624 1.558911,1.05936 2.557983,1.05936 0.999073,0 1.851742,-0.35312 2.557984,-1.05936 0.70624,-0.70625 1.059367,-1.55891 1.059367,-2.55799 0,-0.99907 -0.353127,-1.85174 -1.059367,-2.55798 -0.706242,-0.70625 -1.558911,-1.05937 -2.557984,-1.05937 z m 0,2.06706 c 0.0656,0 0.129044,0.005 0.19172,0.0119 a 0.85293162,0.85293162 0 0 0 -0.202055,0.55035 0.85293162,0.85293162 0 0 0 0.853178,0.85318 0.85293162,0.85293162 0 0 0 0.648022,-0.29972 c 0.0389,0.1371 0.05943,0.28158 0.05943,0.43459 0,0.4272 -0.151586,0.79238 -0.454752,1.09554 -0.303167,0.30317 -0.66835,0.45476 -1.095541,0.45476 -0.427188,0 -0.792373,-0.15159 -1.09554,-0.45476 -0.303168,-0.30316 -0.454753,-0.66834 -0.454753,-1.09554 0,-0.42718 0.151585,-0.79237 0.454753,-1.09554 0.303167,-0.30317 0.668352,-0.45475 1.09554,-0.45475 z" />
    <path
       style="font-size:10.5833px;line-height:1.25;font-family:Quicksilver;-inkscape-font-specification:'Quicksilver, Normal';stroke-width:0.264583;fill:#666666"
       d="m 98.947276,114.17754 h 2.067044 v 2.06705 h -4.134093 v -7.23468 h 2.067049 z"
       id="path10" />
    <path
       style="font-size:10.5833px;line-height:1.25;font-family:Quicksilver;-inkscape-font-specification:'Quicksilver, Normal';stroke-width:0.264583;fill:#666666"
       d="m 96.463719,109.00991 v 7.23468 h -2.067051 v -7.23468 z"
       id="path9" />
    <path
       id="path6"
       style="font-size:10.5833px;line-height:1.25;font-family:Quicksilver;-inkscape-font-specification:'Quicksilver, Normal';stroke-width:0.264583;fill:#666666"
       d="m 81.393998,109.00988 v 7.2347 h 2.067057 v -2.06705 h 1.550293 c 1.72254,0 2.583822,-0.86129 2.583822,-2.58382 0,-1.72255 -0.861282,-2.58383 -2.583822,-2.58383 z m 2.067057,2.06706 h 1.550293 c 0.344508,0 0.516764,0.17225 0.516764,0.51677 0,0.3445 -0.172256,0.51676 -0.516764,0.51676 h -1.550293 z" />
    <path
       style="font-size:10.5833px;line-height:1.25;font-family:Quicksilver;-inkscape-font-specification:'Quicksilver, Normal';stroke-width:0.264583;fill:#666666"
       d="m 77.411718,113.66078 q -2.583814,0 -2.583814,-2.34611 0,-2.30476 2.583814,-2.30476 h 3.358957 v 2.06705 h -3.358957 q -0.516763,0 -0.516763,0.23771 0,0.27906 0.516763,0.27906 h 1.550288 q 2.583813,0 2.583813,2.30476 0,2.3461 -2.583813,2.3461 h -3.358958 v -2.06705 h 3.358958 q 0.516762,0 0.516762,-0.27905 0,-0.23771 -0.516762,-0.23771 z"
       id="path4" />
    <path
       style="font-size:10.5833px;line-height:1.25;font-family:Quicksilver;-inkscape-font-specification:'Quicksilver, Normal';stroke-width:0.264583;fill:#666666"
       d="m 62.368756,112.62725 v 3.61734 h -2.067051 v -7.23468 h 2.067051 l 2.583813,3.61734 v -3.61734 h 2.067051 v 7.23468 h -2.067051 z"
       id="text1" />
    <path
       id="path2-2"
       style="font-size:10.5833px;line-height:1.25;font-family:Quicksilver;-inkscape-font-specification:'Quicksilver, Normal';stroke-width:0.264583;fill:#666666"
       d="m 90.965763,109.03357 c -0.999072,0 -1.851742,0.35312 -2.557983,1.05937 -0.70624,0.70624 -1.059367,1.55891 -1.059367,2.55798 0,0.99908 0.353127,1.85174 1.059367,2.55799 0.706241,0.70624 1.558911,1.05936 2.557983,1.05936 0.999073,0 1.851742,-0.35312 2.557984,-1.05936 0.70624,-0.70625 1.059367,-1.55891 1.059367,-2.55799 0,-0.99907 -0.353127,-1.85174 -1.059367,-2.55798 -0.706242,-0.70625 -1.558911,-1.05937 -2.557984,-1.05937 z m 0,2.06706 c 0.0656,0 0.129044,0.005 0.19172,0.0119 a 0.85293162,0.85293162 0 0 0 -0.202055,0.55035 0.85293162,0.85293162 0 0 0 0.853178,0.85318 0.85293162,0.85293162 0 0 0 0.648022,-0.29972 c 0.0389,0.1371 0.05943,0.28158 0.05943,0.43459 0,0.4272 -0.151586,0.79238 -0.454752,1.09554 -0.303167,0.30317 -0.66835,0.45476 -1.095541,0.45476 -0.427188,0 -0.792373,-0.15159 -1.09554,-0.45476 -0.303168,-0.30316 -0.454753,-0.66834 -0.454753,-1.09554 0,-0.42718 0.151585,-0.79237 0.454753,-1.09554 0.303167,-0.30317 0.668352,-0.45475 1.09554,-0.45475 z" />
  </g>
</svg>
