<?xml version="1.0" encoding="UTF-8" standalone="no"?>
<!-- Created with Inkscape (http://www.inkscape.org/) -->

<svg
   width="111.44324mm"
   height="21.953922mm"
   viewBox="0 0 111.44324 21.953922"
   version="1.1"
   id="svg1"
   inkscape:version="1.3 (0e150ed6c4, 2023-07-21)"
   sodipodi:docname="room5 title.svg"
   xmlns:inkscape="http://www.inkscape.org/namespaces/inkscape"
   xmlns:sodipodi="http://sodipodi.sourceforge.net/DTD/sodipodi-0.dtd"
   xmlns="http://www.w3.org/2000/svg"
   xmlns:svg="http://www.w3.org/2000/svg">
  <sodipodi:namedview
     id="namedview1"
     pagecolor="#ffffff"
     bordercolor="#666666"
     borderopacity="1.0"
     inkscape:showpageshadow="2"
     inkscape:pageopacity="0.0"
     inkscape:pagecheckerboard="0"
     inkscape:deskcolor="#d1d1d1"
     inkscape:document-units="mm"
     inkscape:zoom="1.0469406"
     inkscape:cx="167.63128"
     inkscape:cy="53.011602"
     inkscape:window-width="1920"
     inkscape:window-height="1009"
     inkscape:window-x="1272"
     inkscape:window-y="-8"
     inkscape:window-maximized="1"
     inkscape:current-layer="layer1" />
  <defs
     id="defs1" />
  <g
     inkscape:label="Calque 1"
     inkscape:groupmode="layer"
     id="layer1"
     transform="translate(-49.212499,-137.58333)">
    <path
       id="path4-6-7"
       style="font-size:119.038px;line-height:1.25;font-family:Quicksilver;-inkscape-font-specification:'Quicksilver, Normal';fill:#000000;fill-opacity:0.196078;stroke-width:0.787387"
       d="m 139.62226,138.00729 c -2.9732,0 -5.51071,1.05052 -7.61245,3.15227 -2.10175,2.10174 -3.15278,4.63925 -3.15278,7.61245 0,2.9732 1.05103,5.51071 3.15278,7.61246 2.10174,2.10174 4.63925,3.15278 7.61245,3.15278 2.9732,0 5.51071,-1.05104 7.61246,-3.15278 2.10174,-2.10175 3.15277,-4.63926 3.15277,-7.61246 0,-2.9732 -1.05103,-5.51071 -3.15277,-7.61245 -2.10175,-2.10175 -4.63926,-3.15227 -7.61246,-3.15227 z m 0,6.15105 c 1.2713,0 2.35805,0.45119 3.26027,1.35341 0.90221,0.90221 1.3534,1.98896 1.3534,3.26026 0,1.2713 -0.45119,2.35806 -1.3534,3.26027 -0.90222,0.90221 -1.98897,1.3534 -3.26027,1.3534 -1.2713,0 -2.35805,-0.45119 -3.26027,-1.3534 -0.90221,-0.90221 -1.3534,-1.98897 -1.3534,-3.26027 0,-1.2713 0.45119,-2.35805 1.3534,-3.26026 0.90222,-0.90222 1.98897,-1.35341 3.26027,-1.35341 z" />
    <g
       id="g8"
       transform="matrix(0.26790443,0,0,0.26790443,157.36599,38.499935)">
      <path
         id="path8"
         style="fill:#000000;stroke-width:4.00559;stroke-linecap:round;stroke-linejoin:round;paint-order:markers fill stroke"
         d="m -292.03644,369.84604 a 40.452686,40.452686 0 0 0 -40.45312,40.45312 40.452686,40.452686 0 0 0 40.45312,40.45313 40.452686,40.452686 0 0 0 40.45118,-40.45313 40.452686,40.452686 0 0 0 -40.45118,-40.45312 z m 0,7.44726 a 33.005329,33.005329 0 0 1 33.00391,33.00586 33.005329,33.005329 0 0 1 -33.00391,33.00391 33.005329,33.005329 0 0 1 -33.00585,-33.00391 33.005329,33.005329 0 0 1 33.00585,-33.00586 z" />
      <circle
         style="fill:#000000;stroke-width:0.670392;stroke-linecap:round;stroke-linejoin:round;paint-order:markers fill stroke"
         id="path8-4"
         cx="-292.03741"
         cy="410.29916"
         r="6.7703257" />
      <rect
         style="fill:#000000;stroke-width:3;stroke-linecap:round;stroke-linejoin:round;paint-order:markers fill stroke"
         id="rect8"
         width="3.3851619"
         height="73.458015"
         x="-293.72998"
         y="373.57016" />
      <rect
         style="fill:#000000;stroke-width:3;stroke-linecap:round;stroke-linejoin:round;paint-order:markers fill stroke"
         id="rect8-0"
         width="3.3851619"
         height="73.458015"
         x="-411.99176"
         y="255.3084"
         transform="matrix(0,-1,-1,0,0,0)" />
      <rect
         style="fill:#000000;stroke-width:3;stroke-linecap:round;stroke-linejoin:round;paint-order:markers fill stroke"
         id="rect8-2"
         width="3.3851619"
         height="73.458015"
         x="81.931122"
         y="459.89795"
         transform="rotate(45)" />
      <rect
         style="fill:#000000;stroke-width:3;stroke-linecap:round;stroke-linejoin:round;paint-order:markers fill stroke"
         id="rect8-0-8"
         width="3.3851619"
         height="73.458015"
         x="-498.31955"
         y="-120.35271"
         transform="matrix(0.70710678,-0.70710678,-0.70710678,-0.70710678,0,0)" />
    </g>
    <path
       id="path1-2"
       style="font-size:119.038px;line-height:1.25;font-family:Quicksilver;-inkscape-font-specification:'Quicksilver, Normal';stroke-width:0.787387"
       d="m 49.212499,137.6273 v 21.52995 h 6.151044 v -6.15156 l 6.151562,6.15156 h 7.689453 l -6.459037,-6.45904 c 3.280775,-0.82019 4.921147,-3.28101 4.921147,-7.38197 0,-5.12622 -2.563241,-7.68894 -7.689453,-7.68894 z m 6.151044,6.15105 h 4.613672 c 1.025241,0 1.53789,0.51264 1.53789,1.53789 0,1.02524 -0.512649,1.53789 -1.53789,1.53789 h -4.613672 z" />
    <path
       id="path4-6"
       style="font-size:119.038px;line-height:1.25;font-family:Quicksilver;-inkscape-font-specification:'Quicksilver, Normal';fill:#000000;stroke-width:0.787387"
       d="m 101.62273,137.6273 c -2.973198,0 -5.510706,1.05051 -7.61245,3.15226 -2.101747,2.10175 -3.15278,4.63926 -3.15278,7.61246 0,2.9732 1.051033,5.51071 3.15278,7.61245 2.101744,2.10175 4.639252,3.15278 7.61245,3.15278 2.97321,0 5.51071,-1.05103 7.61246,-3.15278 2.10174,-2.10174 3.15278,-4.63925 3.15278,-7.61245 0,-2.9732 -1.05104,-5.51071 -3.15278,-7.61246 -2.10175,-2.10175 -4.63925,-3.15226 -7.61246,-3.15226 z m 0,6.15105 c 1.27131,0 2.35806,0.45119 3.26027,1.3534 0.90221,0.90221 1.35341,1.98897 1.35341,3.26027 0,1.2713 -0.4512,2.35805 -1.35341,3.26026 -0.90221,0.90222 -1.98896,1.35341 -3.26027,1.35341 -1.2713,0 -2.358047,-0.45119 -3.260261,-1.35341 -0.902213,-0.90221 -1.353407,-1.98896 -1.353407,-3.26026 0,-1.2713 0.451194,-2.35806 1.353407,-3.26027 0.902214,-0.90221 1.988961,-1.3534 3.260261,-1.3534 z" />
    <path
       style="font-size:119.038px;line-height:1.25;font-family:Quicksilver;-inkscape-font-specification:'Quicksilver, Normal';fill:#4288cc;stroke-width:0.787387;fill-opacity:1"
       d="m 142.2059,159.15724 v -6.15146 h 10.76052 c 1.02524,0 1.53786,-0.2563 1.53786,-0.76893 0,-0.51262 -0.51262,-0.76893 -1.53786,-0.76893 h -10.76506 v -13.84078 h 17.68545 v 6.15145 h -11.53399 v 1.53787 h 6.15146 c 4.10097,0 6.15146,2.26066 6.15146,6.78198 0,4.70587 -2.05049,7.0588 -6.15146,7.0588 z"
       id="path7-2"
       sodipodi:nodetypes="ccsssccccccsssc" />
    <path
       style="font-size:119.038px;line-height:1.25;font-family:Quicksilver;-inkscape-font-specification:'Quicksilver, Normal';stroke-width:0.787387"
       d="m 125.05982,159.15724 -5.38252,-9.99612 v 9.99612 h -6.15146 v -21.5301 h 6.15146 l 5.38252,10.76505 5.38253,-10.76505 h 6.15146 v 21.5301 h -6.15146 v -9.99612 z"
       id="path6-2" />
  </g>
</svg>
